<svg id="visual" viewBox="0 0 900 600" width="900" height="600" xmlns="http://www.w3.org/2000/svg" xmlns:xlink="http://www.w3.org/1999/xlink" version="1.1"><path d="M0 500L21.5 497.8C43 495.7 86 491.3 128.8 488.3C171.7 485.3 214.3 483.7 257.2 482.2C300 480.7 343 479.3 385.8 475.2C428.7 471 471.3 464 514.2 459.8C557 455.7 600 454.3 642.8 458.8C685.7 463.3 728.3 473.7 771.2 482.7C814 491.7 857 499.3 878.5 503.2L900 507L900 601L878.5 601C857 601 814 601 771.2 601C728.3 601 685.7 601 642.8 601C600 601 557 601 514.2 601C471.3 601 428.7 601 385.8 601C343 601 300 601 257.2 601C214.3 601 171.7 601 128.8 601C86 601 43 601 21.5 601L0 601Z" fill="#69fafa"></path><path d="M0 506L21.5 508C43 510 86 514 128.8 515.7C171.7 517.3 214.3 516.7 257.2 519C300 521.3 343 526.7 385.8 525.8C428.7 525 471.3 518 514.2 515.8C557 513.7 600 516.3 642.8 516.5C685.7 516.7 728.3 514.3 771.2 508.7C814 503 857 494 878.5 489.5L900 485L900 601L878.5 601C857 601 814 601 771.2 601C728.3 601 685.7 601 642.8 601C600 601 557 601 514.2 601C471.3 601 428.7 601 385.8 601C343 601 300 601 257.2 601C214.3 601 171.7 601 128.8 601C86 601 43 601 21.5 601L0 601Z" fill="#19daff"></path><path d="M0 536L21.5 535.7C43 535.3 86 534.7 128.8 531.2C171.7 527.7 214.3 521.3 257.2 520.3C300 519.3 343 523.7 385.8 528C428.7 532.3 471.3 536.7 514.2 536.7C557 536.7 600 532.3 642.8 534.3C685.7 536.3 728.3 544.7 771.2 546.7C814 548.7 857 544.3 878.5 542.2L900 540L900 601L878.5 601C857 601 814 601 771.2 601C728.3 601 685.7 601 642.8 601C600 601 557 601 514.2 601C471.3 601 428.7 601 385.8 601C343 601 300 601 257.2 601C214.3 601 171.7 601 128.8 601C86 601 43 601 21.5 601L0 601Z" fill="#00b5ff"></path><path d="M0 562L21.5 563.7C43 565.3 86 568.7 128.8 568C171.7 567.3 214.3 562.7 257.2 561C300 559.3 343 560.7 385.8 560.7C428.7 560.7 471.3 559.3 514.2 559.8C557 560.3 600 562.7 642.8 564.3C685.7 566 728.3 567 771.2 566.8C814 566.7 857 565.3 878.5 564.7L900 564L900 601L878.5 601C857 601 814 601 771.2 601C728.3 601 685.7 601 642.8 601C600 601 557 601 514.2 601C471.3 601 428.7 601 385.8 601C343 601 300 601 257.2 601C214.3 601 171.7 601 128.8 601C86 601 43 601 21.5 601L0 601Z" fill="#198bf7"></path></svg>