<svg id="visual" viewBox="0 0 960 540" width="960" height="540" xmlns="http://www.w3.org/2000/svg" xmlns:xlink="http://www.w3.org/1999/xlink" version="1.1"><path d="M0 435L22.8 431.5C45.7 428 91.3 421 137 421.8C182.7 422.7 228.3 431.3 274 436.2C319.7 441 365.3 442 411.2 441.5C457 441 503 439 548.8 442C594.7 445 640.3 453 686 454.5C731.7 456 777.3 451 823 443.5C868.7 436 914.3 426 937.2 421L960 416L960 541L937.2 541C914.3 541 868.7 541 823 541C777.3 541 731.7 541 686 541C640.3 541 594.7 541 548.8 541C503 541 457 541 411.2 541C365.3 541 319.7 541 274 541C228.3 541 182.7 541 137 541C91.3 541 45.7 541 22.8 541L0 541Z" fill="#78c2ff"></path><path d="M0 479L22.8 474.8C45.7 470.7 91.3 462.3 137 462.2C182.7 462 228.3 470 274 471.7C319.7 473.3 365.3 468.7 411.2 461.5C457 454.3 503 444.7 548.8 440.2C594.7 435.7 640.3 436.3 686 438.2C731.7 440 777.3 443 823 447.7C868.7 452.3 914.3 458.7 937.2 461.8L960 465L960 541L937.2 541C914.3 541 868.7 541 823 541C777.3 541 731.7 541 686 541C640.3 541 594.7 541 548.8 541C503 541 457 541 411.2 541C365.3 541 319.7 541 274 541C228.3 541 182.7 541 137 541C91.3 541 45.7 541 22.8 541L0 541Z" fill="#52a4f3"></path><path d="M0 471L22.8 472.3C45.7 473.7 91.3 476.3 137 475.8C182.7 475.3 228.3 471.7 274 471C319.7 470.3 365.3 472.7 411.2 477C457 481.3 503 487.7 548.8 489.5C594.7 491.3 640.3 488.7 686 487.2C731.7 485.7 777.3 485.3 823 483.8C868.7 482.3 914.3 479.7 937.2 478.3L960 477L960 541L937.2 541C914.3 541 868.7 541 823 541C777.3 541 731.7 541 686 541C640.3 541 594.7 541 548.8 541C503 541 457 541 411.2 541C365.3 541 319.7 541 274 541C228.3 541 182.7 541 137 541C91.3 541 45.7 541 22.8 541L0 541Z" fill="#3086e4"></path><path d="M0 505L22.8 504.8C45.7 504.7 91.3 504.3 137 502C182.7 499.7 228.3 495.3 274 494.5C319.7 493.7 365.3 496.3 411.2 500.7C457 505 503 511 548.8 511.3C594.7 511.7 640.3 506.3 686 504.2C731.7 502 777.3 503 823 504.5C868.7 506 914.3 508 937.2 509L960 510L960 541L937.2 541C914.3 541 868.7 541 823 541C777.3 541 731.7 541 686 541C640.3 541 594.7 541 548.8 541C503 541 457 541 411.2 541C365.3 541 319.7 541 274 541C228.3 541 182.7 541 137 541C91.3 541 45.7 541 22.8 541L0 541Z" fill="#1667d3"></path></svg>